# xmcd
#
# Track frame offsets:
#	150
#	16139
#	31830
#	48438
#	64889
#	84705
#	98715
#	115828
#	128974
#	149090
#
# Disc length: 2218 seconds
#
# Revision: 0
# Processed by: cddbd v1.5.2PL0 Copyright (c) Steve Scherf et al.
# Submitted via: EasyCDDAExtractor 2011.3.0.0
#
DISCID=8708a80a
DTITLE=Casey Donahew Band - Double-Wide Dream
DYEAR=2011
DGENRE=Country
TTITLE0=Let You Go
TTITLE1=Double-Wide Dream
TTITLE2=Give You A Ring
TTITLE3=Running Through My Head
TTITLE4=Regrets
TTITLE5=One Star Flag
TTITLE6=I'd Give Anything
TTITLE7=Let's Not Say Goodbye Again
TTITLE8=Could Be My Time
TTITLE9=White Trash Story - II (The Deuce)
EXTD=
EXTT0=
EXTT1=
EXTT2=
EXTT3=
EXTT4=
EXTT5=
EXTT6=
EXTT7=
EXTT8=
EXTT9=
PLAYORDER=
